<svg><svg>
  <g id="flame_1">
    <path d="M291.029,493.703c-0.017,-27.732 9.754,-50.218 21.811,-50.231c12.057,-0.025 21.844,22.424 21.85,50.143c0.016,27.72 -21.801,87.876 -21.801,87.876c0,0 -21.855,-60.069 -21.86,-87.788Z" style="fill:#ff8400;stroke:#000;stroke-width:4.17px;"></path>
    <path d="M301.94,493.691c-0.006,-13.866 4.885,-25.122 10.911,-25.135c6.031,0 10.916,11.219 10.922,25.072c0.005,13.866 -10.9,37.683 -10.9,37.683c-0,-0 -10.917,-23.767 -10.933,-37.62Z" style="fill:#ffdb3d;stroke:#000;stroke-width:4.17px;"></path>
  </g>
  <id>flame_1</id>
</svg>
<svg>
  <g id="flame_2">
    <path d="M291.029,530.657c-0.017,-48.134 9.754,-87.163 21.811,-87.185c12.057,-0.043 21.844,38.921 21.85,87.032c0.016,48.112 -21.801,152.524 -21.801,152.524c0,-0 -21.855,-104.26 -21.86,-152.371Z" style="fill:#ff8400;stroke:#000;stroke-width:4.17px;"></path>
    <path d="M301.94,530.635c-0.006,-24.067 4.885,-43.603 10.911,-43.625c6.031,-0 10.916,19.471 10.922,43.516c0.005,24.066 -10.9,65.404 -10.9,65.404c-0,0 -10.917,-41.25 -10.933,-65.295Z" style="fill:#ffdb3d;stroke:#000;stroke-width:4.17px;"></path>
  </g>
  <id>flame_2</id>
</svg>
<svg>
  <g id="flame_3">
    <path d="M279.127,578.17c-0.025,-74.365 15.07,-134.664 33.698,-134.698c18.629,-0.067 33.749,60.131 33.757,134.463c0.026,74.331 -33.681,235.646 -33.681,235.646c0,-0 -33.765,-161.079 -33.774,-235.411Z" style="fill:#ff8400;stroke:#000;stroke-width:4.17px;"></path>
    <path d="M295.985,578.137c-0.009,-37.183 7.547,-67.366 16.857,-67.4c9.319,0 16.866,30.083 16.875,67.231c0.008,37.183 -16.841,101.049 -16.841,101.049c-0,0 -16.866,-63.732 -16.891,-100.88Z" style="fill:#ffdb3d;stroke:#000;stroke-width:4.17px;"></path>
  </g>
  <id>flame_3</id>
</svg>
<svg>
  <g id="flame_4">
    <path d="M267.115,626.154c-0.034,-100.859 20.439,-182.641 45.704,-182.687c25.265,-0.091 45.772,81.554 45.784,182.367c0.034,100.813 -45.681,319.599 -45.681,319.599c-0,0 -45.795,-218.466 -45.807,-319.279Z" style="fill:#ff8400;stroke:#000;stroke-width:4.17px;"></path>
    <path d="M289.979,626.108c-0.012,-50.429 10.236,-91.366 22.863,-91.412c12.638,0 22.875,40.8 22.886,91.184c0.011,50.429 -22.84,137.049 -22.84,137.049c-0,0 -22.875,-86.437 -22.909,-136.821Z" style="fill:#ffdb3d;stroke:#000;stroke-width:4.17px;"></path>
  </g>
  <id>flame_4</id>
</svg></svg>
