<?xml version="1.0" encoding="UTF-8" standalone="no"?><!DOCTYPE svg PUBLIC "-//W3C//DTD SVG 1.1//EN" "http://www.w3.org/Graphics/SVG/1.1/DTD/svg11.dtd"><svg width="100%" height="100%" viewBox="0 0 3734 1725" version="1.1" xmlns="http://www.w3.org/2000/svg" xmlns:xlink="http://www.w3.org/1999/xlink" xml:space="preserve" xmlns:serif="http://www.serif.com/" style="fill-rule:evenodd;clip-rule:evenodd;stroke-linejoin:round;stroke-miterlimit:2;"><g id="Ebene-1"><g id="flame_4"><path d="M554.785,1230.67c-0.034,-100.858 20.439,-182.641 45.704,-182.686c25.265,-0.091 45.772,81.554 45.784,182.367c0.034,100.813 -45.681,319.599 -45.681,319.599c-0,-0 -45.795,-218.466 -45.807,-319.28Z" style="fill:#ff8400;stroke:#000;stroke-width:4.17px;"/><path d="M577.648,1230.62c-0.011,-50.43 10.237,-91.366 22.864,-91.412c12.638,0 22.874,40.8 22.886,91.184c0.011,50.429 -22.84,137.049 -22.84,137.049c-0,-0 -22.875,-86.437 -22.91,-136.821Z" style="fill:#ffdb3d;stroke:#000;stroke-width:4.17px;"/></g><g id="flame_3"><path d="M464.26,1194.11c-0.025,-74.365 15.07,-134.664 33.698,-134.698c18.629,-0.067 33.749,60.132 33.758,134.463c0.025,74.331 -33.682,235.646 -33.682,235.646c0,-0 -33.765,-161.079 -33.774,-235.411Z" style="fill:#ff8400;stroke:#000;stroke-width:4.17px;"/><path d="M481.118,1194.08c-0.009,-37.183 7.547,-67.366 16.857,-67.4c9.319,0 16.866,30.083 16.875,67.232c0.008,37.182 -16.841,101.048 -16.841,101.048c0,0 -16.866,-63.731 -16.891,-100.88Z" style="fill:#ffdb3d;stroke:#000;stroke-width:4.17px;"/></g><g id="flame_2"><path d="M390.007,1146.6c-0.017,-48.134 9.754,-87.163 21.811,-87.185c12.057,-0.043 21.844,38.921 21.85,87.032c0.016,48.112 -21.801,152.524 -21.801,152.524c0,-0 -21.855,-104.26 -21.86,-152.371Z" style="fill:#ff8400;stroke:#000;stroke-width:4.17px;"/><path d="M400.918,1146.57c-0.006,-24.067 4.885,-43.603 10.911,-43.625c6.031,0 10.917,19.471 10.922,43.516c0.006,24.067 -10.9,65.405 -10.9,65.405c-0,-0 -10.917,-41.251 -10.933,-65.296Z" style="fill:#ffdb3d;stroke:#000;stroke-width:4.17px;"/></g><g id="flame_1"><path d="M311.862,1109.64c-0.016,-27.732 9.754,-50.218 21.811,-50.231c12.058,-0.025 21.844,22.424 21.85,50.143c0.016,27.72 -21.801,87.876 -21.801,87.876c0,0 -21.855,-60.068 -21.86,-87.788Z" style="fill:#ff8400;stroke:#000;stroke-width:4.17px;"/><path d="M322.773,1109.63c-0.005,-13.866 4.885,-25.122 10.911,-25.135c6.032,0 10.917,11.219 10.922,25.072c0.006,13.866 -10.9,37.683 -10.9,37.683c0,-0 -10.917,-23.767 -10.933,-37.62Z" style="fill:#ffdb3d;stroke:#000;stroke-width:4.17px;"/></g><g id="rocket_4"><g id="flame_41" serif:id="flame_4"><path d="M2259.61,717.82c-0.035,-100.858 20.438,-182.641 45.703,-182.686c25.266,-0.091 45.773,81.554 45.784,182.367c0.034,100.813 -45.681,319.599 -45.681,319.599c0,-0 -45.795,-218.466 -45.806,-319.28Z" style="fill:#ff8400;stroke:#000;stroke-width:4.17px;"/><path d="M2282.48,717.775c-0.011,-50.43 10.236,-91.366 22.863,-91.412c12.639,0 22.875,40.8 22.886,91.184c0.012,50.429 -22.84,137.049 -22.84,137.049c0,-0 -22.875,-86.437 -22.909,-136.821Z" style="fill:#ffdb3d;stroke:#000;stroke-width:4.17px;"/></g><g id="rocket"><path id="rocket1" serif:id="rocket" d="M2467.77,209.468l-111.565,-113.308l-109.822,0c2.614,1.743 -113.767,117.52 -113.792,119.043c-0.85,52.702 -0.258,105.418 -0.387,158.125c3.051,-0.87 69.649,70.751 79.316,78.445c-6.828,5.665 -17.078,8.804 -20.484,16.995c-5.971,14.366 -7.068,52.616 -7.068,52.616c0,-0 -93.204,46.127 -101.445,45.44l-0,95.876c-25.494,0.654 -51.035,0.299 -76.485,1.961c-12.681,0.828 -13.555,29.99 -8.06,30.288c65.854,3.571 131.943,1.511 197.852,-0.871c18.229,-0.66 2.196,-29.896 -6.973,-31.378c-25.563,-4.133 -51.79,-0.483 -77.685,-0.724c-1.051,-18.563 5.035,-79.211 5.035,-79.211c-0,0 86.596,-44.705 84.852,-47.318c55.783,-0.437 111.564,-1.215 167.348,-1.307c9.647,-0.018 19.984,-2.641 28.927,0.979c34.446,13.943 99.198,50.881 99.198,50.881c0,-0 0.58,51.133 0.872,76.7c-1.744,-0 -55.981,-1.905 -81.876,1.961c-5.82,0.868 -21.362,27.005 -11.331,28.055c33.353,3.492 141.686,3.231 211.448,-7.102c0.057,-8.105 3.01,-18.299 -10.598,-19.973c-28.133,-3.459 -56.655,-1.962 -84.982,-2.941l-0,-95.876l-97.658,-47.336c0,0 -3.97,-35.835 -12.616,-53.875c-2.969,-6.194 -12.482,-5.74 -18.723,-8.61c4.121,-5.656 77.363,-79.604 77.363,-79.604l-0.661,-167.931Zm-73.215,306.803l-1.994,-28.141l-174.07,-2.147l0.502,29.112l175.562,1.176Zm-142.943,-388.733l-85.754,91.722l-0,149.505c-0,0 85.754,87.366 85.754,91.723l99.363,0l86.793,-89.277l1.726,-154.065l-85.759,-88.094l-102.123,-1.514Z" style="fill:#b3b3b3;stroke:#000;stroke-width:4.17px;"/></g></g><g id="rocket_3"><g id="flame_31" serif:id="flame_3"><path d="M1608.23,669.837c-0.026,-74.365 15.069,-134.664 33.698,-134.698c18.628,-0.067 33.749,60.131 33.757,134.462c0.025,74.332 -33.681,235.646 -33.681,235.646c-0,0 -33.766,-161.079 -33.774,-235.41Z" style="fill:#ff8400;stroke:#000;stroke-width:4.17px;"/><path d="M1625.09,669.803c-0.008,-37.182 7.548,-67.366 16.858,-67.399c9.318,-0 16.866,30.082 16.874,67.231c0.009,37.183 -16.841,101.049 -16.841,101.049c0,-0 -16.865,-63.732 -16.891,-100.881Z" style="fill:#ffdb3d;stroke:#000;stroke-width:4.17px;"/></g><g id="rocket2" serif:id="rocket"><path id="rocket3" serif:id="rocket" d="M1804.37,209.468l-111.565,-113.308l-109.822,0c2.614,1.743 -113.767,117.52 -113.791,119.043c-0.851,52.702 -0.259,105.418 -0.388,158.125c3.051,-0.87 69.649,70.751 79.316,78.445c-6.828,5.665 -17.078,8.804 -20.484,16.995c-5.971,14.366 -7.068,52.616 -7.068,52.616c0,-0 -93.204,46.127 -101.445,45.44l-0,95.876c-25.494,0.654 -51.034,0.299 -76.484,1.961c-12.682,0.828 -13.556,29.99 -8.061,30.288c65.854,3.571 131.943,1.511 197.852,-0.871c18.229,-0.66 2.196,-29.896 -6.973,-31.378c-25.563,-4.133 -51.79,-0.483 -77.685,-0.724c-1.051,-18.563 5.035,-79.211 5.035,-79.211c-0,0 86.596,-44.705 84.852,-47.318c55.783,-0.437 111.564,-1.215 167.348,-1.307c9.647,-0.018 19.984,-2.641 28.927,0.979c34.446,13.943 99.198,50.881 99.198,50.881c0,-0 0.58,51.133 0.872,76.7c-1.744,-0 -55.981,-1.905 -81.876,1.961c-5.82,0.868 -21.361,27.005 -11.331,28.055c33.353,3.492 141.686,3.231 211.448,-7.102c0.057,-8.105 3.01,-18.299 -10.598,-19.973c-28.133,-3.459 -56.655,-1.962 -84.982,-2.941l0,-95.876l-97.658,-47.336c0,0 -3.97,-35.835 -12.616,-53.875c-2.969,-6.194 -12.482,-5.74 -18.723,-8.61c4.121,-5.656 77.363,-79.604 77.363,-79.604l-0.661,-167.931Zm-73.214,306.803l-1.995,-28.141l-174.07,-2.147l0.502,29.112l175.563,1.176Zm-142.943,-388.733l-85.755,91.722l0,149.505c0,0 85.755,87.366 85.755,91.723l99.362,0l86.793,-89.277l1.726,-154.065l-85.759,-88.094l-102.122,-1.514Z" style="fill:#b3b3b3;stroke:#000;stroke-width:4.17px;"/></g></g><g id="rocket_2"><g id="flame_21" serif:id="flame_2"><path d="M957.434,622.323c-0.017,-48.133 9.754,-87.162 21.811,-87.184c12.057,-0.044 21.844,38.92 21.85,87.032c0.016,48.111 -21.801,152.523 -21.801,152.523c0,0 -21.855,-104.259 -21.86,-152.371Z" style="fill:#ff8400;stroke:#000;stroke-width:4.17px;"/><path d="M968.345,622.301c-0.006,-24.066 4.885,-43.603 10.911,-43.624c6.031,-0 10.916,19.471 10.922,43.516c0.005,24.066 -10.9,65.404 -10.9,65.404c-0,0 -10.917,-41.251 -10.933,-65.296Z" style="fill:#ffdb3d;stroke:#000;stroke-width:4.17px;"/></g><g id="rocket4" serif:id="rocket"><path id="rocket5" serif:id="rocket" d="M1141.67,209.468l-111.565,-113.308l-109.821,0c2.613,1.743 -113.767,117.52 -113.792,119.043c-0.851,52.702 -0.258,105.418 -0.387,158.125c3.05,-0.87 69.649,70.751 79.315,78.445c-6.828,5.665 -17.078,8.804 -20.484,16.995c-5.97,14.366 -7.067,52.616 -7.067,52.616c-0,-0 -93.205,46.127 -101.446,45.44l0,95.876c-25.494,0.654 -51.034,0.299 -76.484,1.961c-12.682,0.828 -13.555,29.99 -8.061,30.288c65.854,3.571 131.944,1.511 197.852,-0.871c18.23,-0.66 2.197,-29.896 -6.973,-31.378c-25.563,-4.133 -51.789,-0.483 -77.685,-0.724c-1.05,-18.563 5.035,-79.211 5.035,-79.211c0,0 86.596,-44.705 84.853,-47.318c55.782,-0.437 111.563,-1.215 167.348,-1.307c9.647,-0.018 19.983,-2.641 28.926,0.979c34.446,13.943 99.199,50.881 99.199,50.881c-0,-0 0.58,51.133 0.872,76.7c-1.744,-0 -55.981,-1.905 -81.877,1.961c-5.82,0.868 -21.361,27.005 -11.33,28.055c33.353,3.492 141.685,3.231 211.448,-7.102c0.056,-8.105 3.01,-18.299 -10.599,-19.973c-28.132,-3.459 -56.654,-1.962 -84.981,-2.941l-0,-95.876l-97.658,-47.336c-0,0 -3.971,-35.835 -12.617,-53.875c-2.969,-6.194 -12.481,-5.74 -18.722,-8.61c4.12,-5.656 77.363,-79.604 77.363,-79.604l-0.662,-167.931Zm-73.214,306.803l-1.994,-28.141l-174.07,-2.147l0.501,29.112l175.563,1.176Zm-142.943,-388.733l-85.754,91.722l-0,149.505c-0,0 85.754,87.366 85.754,91.723l99.363,0l86.792,-89.277l1.726,-154.065l-85.758,-88.094l-102.123,-1.514Z" style="fill:#b3b3b3;stroke:#000;stroke-width:4.17px;"/></g></g><g id="rocket_1"><g id="flame_11" serif:id="flame_1"><path d="M311.862,585.37c-0.016,-27.732 9.754,-50.219 21.811,-50.231c12.058,-0.025 21.844,22.424 21.85,50.143c0.016,27.719 -21.801,87.876 -21.801,87.876c0,0 -21.855,-60.069 -21.86,-87.788Z" style="fill:#ff8400;stroke:#000;stroke-width:4.17px;"/><path d="M322.773,585.357c-0.005,-13.866 4.885,-25.121 10.911,-25.134c6.032,-0 10.917,11.218 10.922,25.072c0.006,13.865 -10.9,37.682 -10.9,37.682c0,0 -10.917,-23.766 -10.933,-37.62Z" style="fill:#ffdb3d;stroke:#000;stroke-width:4.17px;"/></g><g id="rocket6" serif:id="rocket"><path id="rocket7" serif:id="rocket" d="M496.101,209.468l-111.565,-113.308l-109.822,0c2.614,1.743 -113.767,117.52 -113.792,119.043c-0.85,52.702 -0.258,105.418 -0.387,158.125c3.051,-0.87 69.649,70.751 79.316,78.445c-6.828,5.665 -17.078,8.804 -20.485,16.995c-5.97,14.366 -7.067,52.616 -7.067,52.616c0,-0 -93.204,46.127 -101.445,45.44l-0,95.876c-25.495,0.654 -51.035,0.299 -76.485,1.961c-12.681,0.828 -13.555,29.99 -8.06,30.288c65.854,3.571 131.943,1.511 197.852,-0.871c18.229,-0.66 2.196,-29.896 -6.973,-31.378c-25.563,-4.133 -51.79,-0.483 -77.685,-0.724c-1.051,-18.563 5.035,-79.211 5.035,-79.211c-0,0 86.596,-44.705 84.852,-47.318c55.783,-0.437 111.564,-1.215 167.348,-1.307c9.647,-0.018 19.984,-2.641 28.927,0.979c34.446,13.943 99.198,50.881 99.198,50.881c-0,-0 0.58,51.133 0.872,76.7c-1.744,-0 -55.981,-1.905 -81.876,1.961c-5.82,0.868 -21.362,27.005 -11.331,28.055c33.353,3.492 141.686,3.231 211.448,-7.102c0.057,-8.105 3.01,-18.299 -10.598,-19.973c-28.133,-3.459 -56.655,-1.962 -84.982,-2.941l-0,-95.876l-97.658,-47.336c0,0 -3.97,-35.835 -12.616,-53.875c-2.97,-6.194 -12.482,-5.74 -18.723,-8.61c4.121,-5.656 77.363,-79.604 77.363,-79.604l-0.661,-167.931Zm-73.215,306.803l-1.994,-28.141l-174.07,-2.147l0.502,29.112l175.562,1.176Zm-142.943,-388.733l-85.754,91.722l-0,149.505c-0,0 85.754,87.366 85.754,91.723l99.363,0l86.793,-89.277l1.726,-154.065l-85.759,-88.094l-102.123,-1.514Z" style="fill:#b3b3b3;stroke:#000;stroke-width:4.17px;"/></g></g><g id="rocket8" serif:id="rocket"><path id="rocket9" serif:id="rocket" d="M1187.32,1111.92l-111.565,-113.307l-109.821,-0c2.613,1.743 -113.767,117.52 -113.792,119.042c-0.851,52.702 -0.258,105.418 -0.387,158.126c3.05,-0.871 69.649,70.75 79.315,78.445c-6.828,5.664 -17.078,8.803 -20.484,16.995c-5.97,14.365 -7.067,52.615 -7.067,52.615c-0,0 -93.205,46.127 -101.446,45.441l0,95.875c-25.494,0.655 -51.034,0.299 -76.484,1.961c-12.682,0.828 -13.555,29.99 -8.061,30.289c65.854,3.57 131.944,1.51 197.852,-0.872c18.23,-0.66 2.197,-29.896 -6.973,-31.378c-25.563,-4.133 -51.789,-0.483 -77.685,-0.723c-1.05,-18.564 5.035,-79.211 5.035,-79.211c0,-0 86.596,-44.705 84.853,-47.319c55.782,-0.437 111.563,-1.215 167.348,-1.307c9.646,-0.018 19.983,-2.64 28.926,0.98c34.446,13.942 99.199,50.88 99.199,50.88c-0,0 0.58,51.134 0.871,76.7c-1.743,0 -55.98,-1.904 -81.876,1.961c-5.82,0.869 -21.361,27.005 -11.33,28.055c33.353,3.492 141.685,3.231 211.448,-7.102c0.056,-8.105 3.01,-18.298 -10.599,-19.973c-28.133,-3.459 -56.654,-1.961 -84.981,-2.941l-0,-95.875l-97.658,-47.336c-0,-0 -3.971,-35.836 -12.617,-53.875c-2.969,-6.195 -12.482,-5.74 -18.722,-8.611c4.12,-5.655 77.363,-79.603 77.363,-79.603l-0.662,-167.932Zm-73.214,306.804l-1.994,-28.142l-174.071,-2.147l0.502,29.112l175.563,1.177Zm-142.943,-388.734l-85.755,91.722l0,149.506c0,-0 85.755,87.365 85.755,91.723l99.363,-0l86.792,-89.277l1.726,-154.065l-85.758,-88.094l-102.123,-1.515Z" style="fill:#b3b3b3;stroke:#000;stroke-width:4.17px;"/></g></g></svg>