<?xml version="1.0" encoding="UTF-8" standalone="no"?><!DOCTYPE svg PUBLIC "-//W3C//DTD SVG 1.1//EN" "http://www.w3.org/Graphics/SVG/1.1/DTD/svg11.dtd">
<svg width="100%" height="100%" viewBox="0 0 630 817" version="1.1" xmlns="http://www.w3.org/2000/svg"
     xml:space="preserve" xmlns:serif="http://www.serif.com/" style="fill-rule:evenodd;clip-rule:evenodd;stroke-linejoin:round;stroke-miterlimit:2;"><g id="rocket_3"><g id="flame_3"><path d="M279.127,578.17c-0.025,-74.365 15.07,-134.664 33.698,-134.698c18.629,-0.067 33.749,60.131 33.757,134.463c0.026,74.331 -33.681,235.646 -33.681,235.646c0,-0 -33.765,-161.079 -33.774,-235.411Z" style="fill:#ff8400;stroke:#000;stroke-width:4.17px;"/><path
        d="M295.985,578.137c-0.009,-37.183 7.547,-67.366 16.857,-67.4c9.319,0 16.866,30.083 16.875,67.231c0.008,37.183 -16.841,101.049 -16.841,101.049c-0,0 -16.866,-63.732 -16.891,-100.88Z"
        style="fill:#ffdb3d;stroke:#000;stroke-width:4.17px;"/></g><g id="rocket"><path id="rocket1" serif:id="rocket" d="M475.267,117.801l-111.565,-113.308l-109.821,0c2.613,1.744 -113.767,117.52 -113.792,119.043c-0.851,52.702 -0.258,105.418 -0.387,158.125c3.05,-0.87 69.649,70.751 79.315,78.446c-6.828,5.664 -17.078,8.803 -20.484,16.995c-5.97,14.365 -7.067,52.615 -7.067,52.615c-0,0 -93.205,46.127 -101.446,45.441l0,95.875c-25.494,0.654 -51.034,0.299 -76.484,1.961c-12.682,0.828 -13.555,29.99 -8.061,30.289c65.854,3.57 131.944,1.51 197.852,-0.872c18.23,-0.66 2.197,-29.896 -6.973,-31.378c-25.563,-4.133 -51.789,-0.483 -77.685,-0.723c-1.05,-18.564 5.035,-79.211 5.035,-79.211c0,-0 86.596,-44.705 84.853,-47.319c55.782,-0.437 111.563,-1.215 167.348,-1.307c9.647,-0.018 19.983,-2.64 28.926,0.98c34.446,13.942 99.199,50.88 99.199,50.88c-0,0 0.58,51.133 0.872,76.7c-1.744,0 -55.981,-1.905 -81.877,1.961c-5.82,0.869 -21.361,27.005 -11.33,28.055c33.353,3.492 141.685,3.231 211.448,-7.102c0.056,-8.105 3.01,-18.298 -10.599,-19.973c-28.132,-3.459 -56.654,-1.961 -84.981,-2.941l-0,-95.875l-97.658,-47.336c-0,-0 -3.971,-35.836 -12.617,-53.875c-2.969,-6.195 -12.481,-5.741 -18.722,-8.611c4.12,-5.655 77.363,-79.604 77.363,-79.604l-0.662,-167.931Zm-73.214,306.803l-1.994,-28.141l-174.07,-2.147l0.501,29.112l175.563,1.176Zm-142.943,-388.733l-85.754,91.722l-0,149.506c-0,-0 85.754,87.365 85.754,91.723l99.363,-0l86.792,-89.277l1.726,-154.065l-85.758,-88.095l-102.123,-1.514Z" style="fill:#b3b3b3;stroke:#000;stroke-width:4.17px;"/></g></g></svg>
