<?xml version="1.0" encoding="UTF-8" standalone="no"?><!DOCTYPE svg PUBLIC "-//W3C//DTD SVG 1.1//EN" "http://www.w3.org/Graphics/SVG/1.1/DTD/svg11.dtd">
<svg width="100%" height="100%" viewBox="0 0 630 609" version="1.1" xmlns="http://www.w3.org/2000/svg"
     xml:space="preserve" xmlns:serif="http://www.serif.com/" style="fill-rule:evenodd;clip-rule:evenodd;stroke-linejoin:round;stroke-miterlimit:2;">
    <g id="rocket_1">
        <g id="flame_1">
            <path d="M291.029,493.703c-0.017,-27.732 9.754,-50.218 21.811,-50.231c12.057,-0.025 21.844,22.424 21.85,50.143c0.016,27.72 -21.801,87.876 -21.801,87.876c0,0 -21.855,-60.069 -21.86,-87.788Z"
                  style="fill:#ff8400;stroke:#000;stroke-width:4.17px;"/>
            <path
                    d="M301.94,493.691c-0.006,-13.866 4.885,-25.122 10.911,-25.135c6.031,0 10.916,11.219 10.922,25.072c0.005,13.866 -10.9,37.683 -10.9,37.683c-0,-0 -10.917,-23.767 -10.933,-37.62Z"
                    style="fill:#ffdb3d;stroke:#000;stroke-width:4.17px;"/></g>
        <g id="rocket">
            <path id="rocket1" serif:id="rocket"
                  d="M475.267,117.801l-111.565,-113.308l-109.821,0c2.613,1.744 -113.767,117.52 -113.792,119.043c-0.851,52.702 -0.258,105.418 -0.387,158.125c3.05,-0.87 69.649,70.751 79.315,78.446c-6.828,5.664 -17.078,8.803 -20.484,16.995c-5.97,14.365 -7.067,52.615 -7.067,52.615c-0,0 -93.205,46.127 -101.446,45.441l0,95.875c-25.494,0.654 -51.034,0.299 -76.484,1.961c-12.682,0.828 -13.555,29.99 -8.061,30.289c65.854,3.57 131.944,1.51 197.852,-0.872c18.23,-0.66 2.197,-29.896 -6.973,-31.378c-25.563,-4.133 -51.789,-0.483 -77.685,-0.723c-1.05,-18.564 5.035,-79.211 5.035,-79.211c0,-0 86.596,-44.705 84.853,-47.319c55.782,-0.437 111.563,-1.215 167.348,-1.307c9.647,-0.018 19.983,-2.64 28.926,0.98c34.446,13.942 99.199,50.88 99.199,50.88c-0,0 0.58,51.133 0.872,76.7c-1.744,0 -55.981,-1.905 -81.877,1.961c-5.82,0.869 -21.361,27.005 -11.33,28.055c33.353,3.492 141.685,3.231 211.448,-7.102c0.056,-8.105 3.01,-18.298 -10.599,-19.973c-28.132,-3.459 -56.654,-1.961 -84.981,-2.941l-0,-95.875l-97.658,-47.336c-0,-0 -3.971,-35.836 -12.617,-53.875c-2.969,-6.195 -12.481,-5.741 -18.722,-8.611c4.12,-5.655 77.363,-79.604 77.363,-79.604l-0.662,-167.931Zm-73.214,306.803l-1.994,-28.141l-174.07,-2.147l0.501,29.112l175.563,1.176Zm-142.943,-388.733l-85.754,91.722l-0,149.506c-0,-0 85.754,87.365 85.754,91.723l99.363,-0l86.792,-89.277l1.726,-154.065l-85.758,-88.095l-102.123,-1.514Z"
                  style="fill:#b3b3b3;stroke:#000;stroke-width:4.17px;"/>
        </g>
    </g>
</svg>
