<?xml version="1.0" encoding="UTF-8" standalone="no"?><!DOCTYPE svg PUBLIC "-//W3C//DTD SVG 1.1//EN" "http://www.w3.org/Graphics/SVG/1.1/DTD/svg11.dtd">
<svg width="100%" height="100%" viewBox="0 0 630 950" version="1.1" xmlns="http://www.w3.org/2000/svg"
     xml:space="preserve" xmlns:serif="http://www.serif.com/" style="fill-rule:evenodd;clip-rule:evenodd;stroke-linejoin:round;stroke-miterlimit:2;"><g id="rocket_4"><g id="flame_4"><path d="M267.947,626.154c-0.034,-100.859 20.439,-182.641 45.704,-182.687c25.265,-0.091 45.772,81.554 45.783,182.367c0.035,100.813 -45.68,319.599 -45.68,319.599c-0,0 -45.796,-218.466 -45.807,-319.279Z" style="fill:#ff8400;stroke:#000;stroke-width:4.17px;"/><path
        d="M290.81,626.108c-0.011,-50.429 10.237,-91.366 22.864,-91.412c12.638,0 22.874,40.8 22.886,91.184c0.011,50.429 -22.841,137.049 -22.841,137.049c0,0 -22.874,-86.437 -22.909,-136.821Z"
        style="fill:#ffdb3d;stroke:#000;stroke-width:4.17px;"/></g><g id="rocket"><path id="rocket1" serif:id="rocket" d="M476.099,117.801l-111.565,-113.308l-109.822,0c2.614,1.744 -113.767,117.52 -113.791,119.043c-0.851,52.702 -0.258,105.418 -0.388,158.125c3.051,-0.87 69.65,70.751 79.316,78.446c-6.828,5.664 -17.078,8.803 -20.484,16.995c-5.97,14.365 -7.067,52.615 -7.067,52.615c-0,0 -93.205,46.127 -101.446,45.441l0,95.875c-25.494,0.654 -51.034,0.299 -76.484,1.961c-12.682,0.828 -13.555,29.99 -8.061,30.289c65.854,3.57 131.943,1.51 197.852,-0.872c18.229,-0.66 2.197,-29.896 -6.973,-31.378c-25.563,-4.133 -51.789,-0.483 -77.685,-0.723c-1.05,-18.564 5.035,-79.211 5.035,-79.211c-0,-0 86.596,-44.705 84.852,-47.319c55.783,-0.437 111.564,-1.215 167.348,-1.307c9.647,-0.018 19.984,-2.64 28.927,0.98c34.446,13.942 99.198,50.88 99.198,50.88c0,0 0.58,51.133 0.872,76.7c-1.743,0 -55.98,-1.905 -81.876,1.961c-5.82,0.869 -21.361,27.005 -11.331,28.055c33.353,3.492 141.686,3.231 211.448,-7.102c0.057,-8.105 3.01,-18.298 -10.598,-19.973c-28.133,-3.459 -56.654,-1.961 -84.982,-2.941l0,-95.875l-97.657,-47.336c-0,-0 -3.971,-35.836 -12.617,-53.875c-2.969,-6.195 -12.482,-5.741 -18.723,-8.611c4.121,-5.655 77.364,-79.604 77.364,-79.604l-0.662,-167.931Zm-73.214,306.803l-1.995,-28.141l-174.07,-2.147l0.502,29.112l175.563,1.176Zm-142.943,-388.733l-85.755,91.722l0,149.506c0,-0 85.755,87.365 85.755,91.723l99.363,-0l86.792,-89.277l1.726,-154.065l-85.758,-88.095l-102.123,-1.514Z" style="fill:#b3b3b3;stroke:#000;stroke-width:4.17px;"/></g></g></svg>
